# xmcd
#
# Track frame offsets:
# 150
# 8862
# 37365
# 60345
# 77130
# 101832
# 125462
# 164195
# 182897
# 211440
#
# Disc length: 3179 seconds
#
#
# Revision: 0
# Processed by: cddbd v1.5.2PL0 Copyright (c) Steve Scherf et al.
# Submitted via: Nero 7, 11, 10, 0 
#
DISCID=910c690a
DTITLE=Catman and The All-Niters - Blues From The Heart
DYEAR=1999
DGENRE=Blues
TTITLE0=The Dirty Boogie
TTITLE1=Think I'm Gonna Drown
TTITLE2=Mercy, Mercy, Mercy
TTITLE3=The One
TTITLE4=Yesterdays
TTITLE5=Rock This House
TTITLE6=Help Me
TTITLE7=Kidney Stew
TTITLE8=No Pain
TTITLE9=Say Baby
EXTD=
EXTT0=The Dirty Boogie
EXTT1=Think I'm Gonna Drown
EXTT2=Mercy, Mercy, Mercy
EXTT3=The One
EXTT4=Yesterdays
EXTT5=Rock This House
EXTT6=Help Me
EXTT7=Kidney Stew
EXTT8=No Pain
EXTT9=Say Baby
PLAYORDER=
